<mxfile host="65bd71144e">
    <diagram id="PoBKUtf6L46CU-3DNbPq" name="Monolithic">
        <mxGraphModel dx="1011" dy="790" grid="1" gridSize="10" guides="1" tooltips="1" connect="1" arrows="1" fold="1" page="1" pageScale="1" pageWidth="850" pageHeight="1100" math="0" shadow="0">
            <root>
                <mxCell id="0"/>
                <mxCell id="1" parent="0"/>
                <mxCell id="4" style="edgeStyle=none;html=1;entryX=0.5;entryY=0;entryDx=0;entryDy=0;" parent="1" source="2" target="3" edge="1">
                    <mxGeometry relative="1" as="geometry"/>
                </mxCell>
                <mxCell id="2" value="" style="aspect=fixed;perimeter=ellipsePerimeter;html=1;align=center;shadow=0;dashed=0;spacingTop=3;image;image=img/lib/active_directory/vista_client.svg;" parent="1" vertex="1">
                    <mxGeometry x="380" y="10" width="76" height="100" as="geometry"/>
                </mxCell>
                <mxCell id="10" style="edgeStyle=none;html=1;" parent="1" source="3" target="8" edge="1">
                    <mxGeometry relative="1" as="geometry"/>
                </mxCell>
                <mxCell id="3" value="" style="rounded=1;whiteSpace=wrap;html=1;" parent="1" vertex="1">
                    <mxGeometry x="270.5" y="240" width="295" height="330" as="geometry"/>
                </mxCell>
                <mxCell id="5" value="Presenation" style="rounded=1;whiteSpace=wrap;html=1;" parent="1" vertex="1">
                    <mxGeometry x="350" y="300" width="120" height="60" as="geometry"/>
                </mxCell>
                <mxCell id="6" value="Data Access" style="rounded=1;whiteSpace=wrap;html=1;" parent="1" vertex="1">
                    <mxGeometry x="350" y="460" width="120" height="60" as="geometry"/>
                </mxCell>
                <mxCell id="7" value="Application" style="rounded=1;whiteSpace=wrap;html=1;" parent="1" vertex="1">
                    <mxGeometry x="350" y="380" width="120" height="60" as="geometry"/>
                </mxCell>
                <mxCell id="8" value="" style="aspect=fixed;perimeter=ellipsePerimeter;html=1;align=center;shadow=0;dashed=0;spacingTop=3;image;image=img/lib/active_directory/database_partition_2.svg;" parent="1" vertex="1">
                    <mxGeometry x="370.7" y="680" width="94.59" height="70" as="geometry"/>
                </mxCell>
                <mxCell id="11" value="" style="verticalLabelPosition=bottom;shadow=0;dashed=0;align=center;html=1;verticalAlign=top;strokeWidth=1;shape=mxgraph.mockup.containers.userFemale;strokeColor=#666666;strokeColor2=#008cff;" parent="1" vertex="1">
                    <mxGeometry x="120" y="790" width="100" height="100" as="geometry"/>
                </mxCell>
                <mxCell id="12" value="" style="verticalLabelPosition=bottom;shadow=0;dashed=0;align=center;html=1;verticalAlign=top;strokeWidth=1;shape=mxgraph.mockup.containers.userMale;strokeColor=#666666;strokeColor2=#008cff;" parent="1" vertex="1">
                    <mxGeometry x="230" y="790" width="100" height="100" as="geometry"/>
                </mxCell>
                <mxCell id="13" value="" style="verticalLabelPosition=bottom;shadow=0;dashed=0;align=center;html=1;verticalAlign=top;strokeWidth=1;shape=mxgraph.mockup.containers.userFemale;strokeColor=#666666;strokeColor2=#008cff;" parent="1" vertex="1">
                    <mxGeometry x="350" y="790" width="100" height="100" as="geometry"/>
                </mxCell>
                <mxCell id="14" value="" style="verticalLabelPosition=bottom;shadow=0;dashed=0;align=center;html=1;verticalAlign=top;strokeWidth=1;shape=mxgraph.mockup.containers.userMale;strokeColor=#666666;strokeColor2=#008cff;" parent="1" vertex="1">
                    <mxGeometry x="460" y="790" width="100" height="100" as="geometry"/>
                </mxCell>
                <mxCell id="15" value="" style="verticalLabelPosition=bottom;shadow=0;dashed=0;align=center;html=1;verticalAlign=top;strokeWidth=1;shape=mxgraph.mockup.containers.userFemale;strokeColor=#666666;strokeColor2=#008cff;" parent="1" vertex="1">
                    <mxGeometry x="120" y="900" width="100" height="100" as="geometry"/>
                </mxCell>
                <mxCell id="16" value="" style="verticalLabelPosition=bottom;shadow=0;dashed=0;align=center;html=1;verticalAlign=top;strokeWidth=1;shape=mxgraph.mockup.containers.userMale;strokeColor=#666666;strokeColor2=#008cff;" parent="1" vertex="1">
                    <mxGeometry x="230" y="900" width="100" height="100" as="geometry"/>
                </mxCell>
                <mxCell id="17" value="" style="verticalLabelPosition=bottom;shadow=0;dashed=0;align=center;html=1;verticalAlign=top;strokeWidth=1;shape=mxgraph.mockup.containers.userFemale;strokeColor=#666666;strokeColor2=#008cff;" parent="1" vertex="1">
                    <mxGeometry x="350" y="900" width="100" height="100" as="geometry"/>
                </mxCell>
                <mxCell id="18" value="" style="verticalLabelPosition=bottom;shadow=0;dashed=0;align=center;html=1;verticalAlign=top;strokeWidth=1;shape=mxgraph.mockup.containers.userMale;strokeColor=#666666;strokeColor2=#008cff;" parent="1" vertex="1">
                    <mxGeometry x="460" y="900" width="100" height="100" as="geometry"/>
                </mxCell>
                <mxCell id="19" value="" style="verticalLabelPosition=bottom;shadow=0;dashed=0;align=center;html=1;verticalAlign=top;strokeWidth=1;shape=mxgraph.mockup.containers.userFemale;strokeColor=#666666;strokeColor2=#008cff;" parent="1" vertex="1">
                    <mxGeometry x="570" y="790" width="100" height="100" as="geometry"/>
                </mxCell>
                <mxCell id="20" value="" style="verticalLabelPosition=bottom;shadow=0;dashed=0;align=center;html=1;verticalAlign=top;strokeWidth=1;shape=mxgraph.mockup.containers.userMale;strokeColor=#666666;strokeColor2=#008cff;" parent="1" vertex="1">
                    <mxGeometry x="680" y="790" width="100" height="100" as="geometry"/>
                </mxCell>
                <mxCell id="21" value="" style="verticalLabelPosition=bottom;shadow=0;dashed=0;align=center;html=1;verticalAlign=top;strokeWidth=1;shape=mxgraph.mockup.containers.userFemale;strokeColor=#666666;strokeColor2=#008cff;" parent="1" vertex="1">
                    <mxGeometry x="570" y="900" width="100" height="100" as="geometry"/>
                </mxCell>
                <mxCell id="22" value="" style="verticalLabelPosition=bottom;shadow=0;dashed=0;align=center;html=1;verticalAlign=top;strokeWidth=1;shape=mxgraph.mockup.containers.userMale;strokeColor=#666666;strokeColor2=#008cff;" parent="1" vertex="1">
                    <mxGeometry x="680" y="900" width="100" height="100" as="geometry"/>
                </mxCell>
            </root>
        </mxGraphModel>
    </diagram>
    <diagram id="RNTUmx4JsXve21vOWoV9" name="Microservices">
        <mxGraphModel dx="1011" dy="790" grid="1" gridSize="10" guides="1" tooltips="1" connect="1" arrows="1" fold="1" page="1" pageScale="1" pageWidth="850" pageHeight="1100" math="0" shadow="0">
            <root>
                <mxCell id="KVmCY99htQ8bYZ6x_4Vh-0"/>
                <mxCell id="KVmCY99htQ8bYZ6x_4Vh-1" parent="KVmCY99htQ8bYZ6x_4Vh-0"/>
                <mxCell id="VSVKCAFTvveSNPC8Lu4J-0" style="edgeStyle=none;html=1;" parent="KVmCY99htQ8bYZ6x_4Vh-1" source="VSVKCAFTvveSNPC8Lu4J-1" edge="1">
                    <mxGeometry relative="1" as="geometry">
                        <mxPoint x="217.4949999999999" y="670" as="targetPoint"/>
                    </mxGeometry>
                </mxCell>
                <mxCell id="VSVKCAFTvveSNPC8Lu4J-1" value="" style="rounded=1;whiteSpace=wrap;html=1;" parent="KVmCY99htQ8bYZ6x_4Vh-1" vertex="1">
                    <mxGeometry x="70" y="230" width="295" height="330" as="geometry"/>
                </mxCell>
                <mxCell id="VSVKCAFTvveSNPC8Lu4J-2" value="Presenation" style="rounded=1;whiteSpace=wrap;html=1;" parent="KVmCY99htQ8bYZ6x_4Vh-1" vertex="1">
                    <mxGeometry x="149.5" y="290" width="120" height="60" as="geometry"/>
                </mxCell>
                <mxCell id="VSVKCAFTvveSNPC8Lu4J-3" value="Data Access" style="rounded=1;whiteSpace=wrap;html=1;" parent="KVmCY99htQ8bYZ6x_4Vh-1" vertex="1">
                    <mxGeometry x="149.5" y="450" width="120" height="60" as="geometry"/>
                </mxCell>
                <mxCell id="VSVKCAFTvveSNPC8Lu4J-4" value="Application" style="rounded=1;whiteSpace=wrap;html=1;" parent="KVmCY99htQ8bYZ6x_4Vh-1" vertex="1">
                    <mxGeometry x="149.5" y="370" width="120" height="60" as="geometry"/>
                </mxCell>
                <mxCell id="jcYA9xsIbeveeoa89W_H-0" value="" style="aspect=fixed;perimeter=ellipsePerimeter;html=1;align=center;shadow=0;dashed=0;spacingTop=3;image;image=img/lib/active_directory/database_partition_2.svg;" parent="KVmCY99htQ8bYZ6x_4Vh-1" vertex="1">
                    <mxGeometry x="170.20999999999998" y="670" width="94.59" height="70" as="geometry"/>
                </mxCell>
                <mxCell id="jcYA9xsIbeveeoa89W_H-1" value="Customer" style="text;html=1;align=center;verticalAlign=middle;resizable=0;points=[];autosize=1;strokeColor=none;fillColor=none;" parent="KVmCY99htQ8bYZ6x_4Vh-1" vertex="1">
                    <mxGeometry x="155" y="200" width="70" height="20" as="geometry"/>
                </mxCell>
                <mxCell id="jcYA9xsIbeveeoa89W_H-2" style="edgeStyle=none;html=1;" parent="KVmCY99htQ8bYZ6x_4Vh-1" source="jcYA9xsIbeveeoa89W_H-3" edge="1">
                    <mxGeometry relative="1" as="geometry">
                        <mxPoint x="537.4949999999999" y="665" as="targetPoint"/>
                    </mxGeometry>
                </mxCell>
                <mxCell id="jcYA9xsIbeveeoa89W_H-3" value="" style="rounded=1;whiteSpace=wrap;html=1;" parent="KVmCY99htQ8bYZ6x_4Vh-1" vertex="1">
                    <mxGeometry x="390" y="225" width="295" height="330" as="geometry"/>
                </mxCell>
                <mxCell id="jcYA9xsIbeveeoa89W_H-4" value="Presenation" style="rounded=1;whiteSpace=wrap;html=1;" parent="KVmCY99htQ8bYZ6x_4Vh-1" vertex="1">
                    <mxGeometry x="469.5" y="285" width="120" height="60" as="geometry"/>
                </mxCell>
                <mxCell id="jcYA9xsIbeveeoa89W_H-5" value="Data Access" style="rounded=1;whiteSpace=wrap;html=1;" parent="KVmCY99htQ8bYZ6x_4Vh-1" vertex="1">
                    <mxGeometry x="469.5" y="445" width="120" height="60" as="geometry"/>
                </mxCell>
                <mxCell id="jcYA9xsIbeveeoa89W_H-6" value="Application" style="rounded=1;whiteSpace=wrap;html=1;" parent="KVmCY99htQ8bYZ6x_4Vh-1" vertex="1">
                    <mxGeometry x="469.5" y="365" width="120" height="60" as="geometry"/>
                </mxCell>
                <mxCell id="jcYA9xsIbeveeoa89W_H-7" value="" style="aspect=fixed;perimeter=ellipsePerimeter;html=1;align=center;shadow=0;dashed=0;spacingTop=3;image;image=img/lib/active_directory/database_partition_2.svg;" parent="KVmCY99htQ8bYZ6x_4Vh-1" vertex="1">
                    <mxGeometry x="490.21" y="665" width="94.59" height="70" as="geometry"/>
                </mxCell>
                <mxCell id="jcYA9xsIbeveeoa89W_H-8" value="Product Catalog" style="text;html=1;align=center;verticalAlign=middle;resizable=0;points=[];autosize=1;strokeColor=none;fillColor=none;" parent="KVmCY99htQ8bYZ6x_4Vh-1" vertex="1">
                    <mxGeometry x="487.5" y="200" width="100" height="20" as="geometry"/>
                </mxCell>
                <mxCell id="jcYA9xsIbeveeoa89W_H-9" style="edgeStyle=none;html=1;" parent="KVmCY99htQ8bYZ6x_4Vh-1" source="jcYA9xsIbeveeoa89W_H-10" edge="1">
                    <mxGeometry relative="1" as="geometry">
                        <mxPoint x="1202.495" y="655" as="targetPoint"/>
                    </mxGeometry>
                </mxCell>
                <mxCell id="jcYA9xsIbeveeoa89W_H-10" value="" style="rounded=1;whiteSpace=wrap;html=1;" parent="KVmCY99htQ8bYZ6x_4Vh-1" vertex="1">
                    <mxGeometry x="1055" y="220" width="295" height="330" as="geometry"/>
                </mxCell>
                <mxCell id="jcYA9xsIbeveeoa89W_H-11" value="Presenation" style="rounded=1;whiteSpace=wrap;html=1;" parent="KVmCY99htQ8bYZ6x_4Vh-1" vertex="1">
                    <mxGeometry x="1134.5" y="275" width="120" height="60" as="geometry"/>
                </mxCell>
                <mxCell id="jcYA9xsIbeveeoa89W_H-12" value="Data Access" style="rounded=1;whiteSpace=wrap;html=1;" parent="KVmCY99htQ8bYZ6x_4Vh-1" vertex="1">
                    <mxGeometry x="1134.5" y="435" width="120" height="60" as="geometry"/>
                </mxCell>
                <mxCell id="jcYA9xsIbeveeoa89W_H-13" value="Application" style="rounded=1;whiteSpace=wrap;html=1;" parent="KVmCY99htQ8bYZ6x_4Vh-1" vertex="1">
                    <mxGeometry x="1134.5" y="355" width="120" height="60" as="geometry"/>
                </mxCell>
                <mxCell id="jcYA9xsIbeveeoa89W_H-14" value="" style="aspect=fixed;perimeter=ellipsePerimeter;html=1;align=center;shadow=0;dashed=0;spacingTop=3;image;image=img/lib/active_directory/database_partition_2.svg;" parent="KVmCY99htQ8bYZ6x_4Vh-1" vertex="1">
                    <mxGeometry x="1155.21" y="655" width="94.59" height="70" as="geometry"/>
                </mxCell>
                <mxCell id="jcYA9xsIbeveeoa89W_H-15" value="Billing System" style="text;html=1;align=center;verticalAlign=middle;resizable=0;points=[];autosize=1;strokeColor=none;fillColor=none;" parent="KVmCY99htQ8bYZ6x_4Vh-1" vertex="1">
                    <mxGeometry x="1157.5" y="190" width="90" height="20" as="geometry"/>
                </mxCell>
                <mxCell id="jcYA9xsIbeveeoa89W_H-16" style="edgeStyle=none;html=1;" parent="KVmCY99htQ8bYZ6x_4Vh-1" source="jcYA9xsIbeveeoa89W_H-17" edge="1">
                    <mxGeometry relative="1" as="geometry">
                        <mxPoint x="1552.495" y="655" as="targetPoint"/>
                    </mxGeometry>
                </mxCell>
                <mxCell id="jcYA9xsIbeveeoa89W_H-17" value="" style="rounded=1;whiteSpace=wrap;html=1;" parent="KVmCY99htQ8bYZ6x_4Vh-1" vertex="1">
                    <mxGeometry x="1405" y="215" width="295" height="330" as="geometry"/>
                </mxCell>
                <mxCell id="jcYA9xsIbeveeoa89W_H-18" value="Presenation" style="rounded=1;whiteSpace=wrap;html=1;" parent="KVmCY99htQ8bYZ6x_4Vh-1" vertex="1">
                    <mxGeometry x="1484.5" y="275" width="120" height="60" as="geometry"/>
                </mxCell>
                <mxCell id="jcYA9xsIbeveeoa89W_H-19" value="Data Access" style="rounded=1;whiteSpace=wrap;html=1;" parent="KVmCY99htQ8bYZ6x_4Vh-1" vertex="1">
                    <mxGeometry x="1484.5" y="435" width="120" height="60" as="geometry"/>
                </mxCell>
                <mxCell id="jcYA9xsIbeveeoa89W_H-20" value="Application" style="rounded=1;whiteSpace=wrap;html=1;" parent="KVmCY99htQ8bYZ6x_4Vh-1" vertex="1">
                    <mxGeometry x="1484.5" y="355" width="120" height="60" as="geometry"/>
                </mxCell>
                <mxCell id="jcYA9xsIbeveeoa89W_H-21" value="" style="aspect=fixed;perimeter=ellipsePerimeter;html=1;align=center;shadow=0;dashed=0;spacingTop=3;image;image=img/lib/active_directory/database_partition_2.svg;" parent="KVmCY99htQ8bYZ6x_4Vh-1" vertex="1">
                    <mxGeometry x="1505.21" y="655" width="94.59" height="70" as="geometry"/>
                </mxCell>
                <mxCell id="jcYA9xsIbeveeoa89W_H-22" value="Order Processing" style="text;html=1;align=center;verticalAlign=middle;resizable=0;points=[];autosize=1;strokeColor=none;fillColor=none;" parent="KVmCY99htQ8bYZ6x_4Vh-1" vertex="1">
                    <mxGeometry x="1497.5" y="190" width="110" height="20" as="geometry"/>
                </mxCell>
                <mxCell id="jcYA9xsIbeveeoa89W_H-23" value="" style="verticalLabelPosition=bottom;shadow=0;dashed=0;align=center;html=1;verticalAlign=top;strokeWidth=1;shape=mxgraph.mockup.containers.userFemale;strokeColor=#666666;strokeColor2=#008cff;" parent="KVmCY99htQ8bYZ6x_4Vh-1" vertex="1">
                    <mxGeometry x="70.21000000000001" y="780" width="100" height="100" as="geometry"/>
                </mxCell>
                <mxCell id="jcYA9xsIbeveeoa89W_H-24" value="" style="verticalLabelPosition=bottom;shadow=0;dashed=0;align=center;html=1;verticalAlign=top;strokeWidth=1;shape=mxgraph.mockup.containers.userFemale;strokeColor=#666666;strokeColor2=#008cff;" parent="KVmCY99htQ8bYZ6x_4Vh-1" vertex="1">
                    <mxGeometry x="167.5" y="780" width="100" height="100" as="geometry"/>
                </mxCell>
                <mxCell id="jcYA9xsIbeveeoa89W_H-25" value="" style="verticalLabelPosition=bottom;shadow=0;dashed=0;align=center;html=1;verticalAlign=top;strokeWidth=1;shape=mxgraph.mockup.containers.userFemale;strokeColor=#666666;strokeColor2=#008cff;" parent="KVmCY99htQ8bYZ6x_4Vh-1" vertex="1">
                    <mxGeometry x="438.85" y="770" width="100" height="100" as="geometry"/>
                </mxCell>
                <mxCell id="jcYA9xsIbeveeoa89W_H-26" value="" style="verticalLabelPosition=bottom;shadow=0;dashed=0;align=center;html=1;verticalAlign=top;strokeWidth=1;shape=mxgraph.mockup.containers.userFemale;strokeColor=#666666;strokeColor2=#008cff;" parent="KVmCY99htQ8bYZ6x_4Vh-1" vertex="1">
                    <mxGeometry x="536.14" y="770" width="100" height="100" as="geometry"/>
                </mxCell>
                <mxCell id="jcYA9xsIbeveeoa89W_H-27" value="" style="verticalLabelPosition=bottom;shadow=0;dashed=0;align=center;html=1;verticalAlign=top;strokeWidth=1;shape=mxgraph.mockup.containers.userFemale;strokeColor=#666666;strokeColor2=#008cff;" parent="KVmCY99htQ8bYZ6x_4Vh-1" vertex="1">
                    <mxGeometry x="761.5" y="760" width="100" height="100" as="geometry"/>
                </mxCell>
                <mxCell id="jcYA9xsIbeveeoa89W_H-28" value="" style="verticalLabelPosition=bottom;shadow=0;dashed=0;align=center;html=1;verticalAlign=top;strokeWidth=1;shape=mxgraph.mockup.containers.userMale;strokeColor=#666666;strokeColor2=#008cff;" parent="KVmCY99htQ8bYZ6x_4Vh-1" vertex="1">
                    <mxGeometry x="861.5" y="760" width="100" height="100" as="geometry"/>
                </mxCell>
                <mxCell id="jcYA9xsIbeveeoa89W_H-29" value="" style="verticalLabelPosition=bottom;shadow=0;dashed=0;align=center;html=1;verticalAlign=top;strokeWidth=1;shape=mxgraph.mockup.containers.userFemale;strokeColor=#666666;strokeColor2=#008cff;" parent="KVmCY99htQ8bYZ6x_4Vh-1" vertex="1">
                    <mxGeometry x="761.5" y="860" width="100" height="100" as="geometry"/>
                </mxCell>
                <mxCell id="jcYA9xsIbeveeoa89W_H-30" value="" style="verticalLabelPosition=bottom;shadow=0;dashed=0;align=center;html=1;verticalAlign=top;strokeWidth=1;shape=mxgraph.mockup.containers.userMale;strokeColor=#666666;strokeColor2=#008cff;" parent="KVmCY99htQ8bYZ6x_4Vh-1" vertex="1">
                    <mxGeometry x="861.5" y="860" width="100" height="100" as="geometry"/>
                </mxCell>
                <mxCell id="jcYA9xsIbeveeoa89W_H-31" value="" style="verticalLabelPosition=bottom;shadow=0;dashed=0;align=center;html=1;verticalAlign=top;strokeWidth=1;shape=mxgraph.mockup.containers.userFemale;strokeColor=#666666;strokeColor2=#008cff;" parent="KVmCY99htQ8bYZ6x_4Vh-1" vertex="1">
                    <mxGeometry x="1370" y="740" width="100" height="100" as="geometry"/>
                </mxCell>
                <mxCell id="jcYA9xsIbeveeoa89W_H-32" value="" style="verticalLabelPosition=bottom;shadow=0;dashed=0;align=center;html=1;verticalAlign=top;strokeWidth=1;shape=mxgraph.mockup.containers.userMale;strokeColor=#666666;strokeColor2=#008cff;" parent="KVmCY99htQ8bYZ6x_4Vh-1" vertex="1">
                    <mxGeometry x="1470" y="740" width="100" height="100" as="geometry"/>
                </mxCell>
                <mxCell id="jcYA9xsIbeveeoa89W_H-33" value="" style="verticalLabelPosition=bottom;shadow=0;dashed=0;align=center;html=1;verticalAlign=top;strokeWidth=1;shape=mxgraph.mockup.containers.userFemale;strokeColor=#666666;strokeColor2=#008cff;" parent="KVmCY99htQ8bYZ6x_4Vh-1" vertex="1">
                    <mxGeometry x="1370" y="840" width="100" height="100" as="geometry"/>
                </mxCell>
                <mxCell id="jcYA9xsIbeveeoa89W_H-34" value="" style="verticalLabelPosition=bottom;shadow=0;dashed=0;align=center;html=1;verticalAlign=top;strokeWidth=1;shape=mxgraph.mockup.containers.userMale;strokeColor=#666666;strokeColor2=#008cff;" parent="KVmCY99htQ8bYZ6x_4Vh-1" vertex="1">
                    <mxGeometry x="1470" y="840" width="100" height="100" as="geometry"/>
                </mxCell>
                <mxCell id="jcYA9xsIbeveeoa89W_H-35" value="" style="verticalLabelPosition=bottom;shadow=0;dashed=0;align=center;html=1;verticalAlign=top;strokeWidth=1;shape=mxgraph.mockup.containers.userFemale;strokeColor=#666666;strokeColor2=#008cff;" parent="KVmCY99htQ8bYZ6x_4Vh-1" vertex="1">
                    <mxGeometry x="1570" y="740" width="100" height="100" as="geometry"/>
                </mxCell>
                <mxCell id="jcYA9xsIbeveeoa89W_H-36" value="" style="verticalLabelPosition=bottom;shadow=0;dashed=0;align=center;html=1;verticalAlign=top;strokeWidth=1;shape=mxgraph.mockup.containers.userMale;strokeColor=#666666;strokeColor2=#008cff;" parent="KVmCY99htQ8bYZ6x_4Vh-1" vertex="1">
                    <mxGeometry x="1670" y="740" width="100" height="100" as="geometry"/>
                </mxCell>
                <mxCell id="jcYA9xsIbeveeoa89W_H-37" value="" style="verticalLabelPosition=bottom;shadow=0;dashed=0;align=center;html=1;verticalAlign=top;strokeWidth=1;shape=mxgraph.mockup.containers.userFemale;strokeColor=#666666;strokeColor2=#008cff;" parent="KVmCY99htQ8bYZ6x_4Vh-1" vertex="1">
                    <mxGeometry x="1570" y="840" width="100" height="100" as="geometry"/>
                </mxCell>
                <mxCell id="jcYA9xsIbeveeoa89W_H-38" value="" style="verticalLabelPosition=bottom;shadow=0;dashed=0;align=center;html=1;verticalAlign=top;strokeWidth=1;shape=mxgraph.mockup.containers.userMale;strokeColor=#666666;strokeColor2=#008cff;" parent="KVmCY99htQ8bYZ6x_4Vh-1" vertex="1">
                    <mxGeometry x="1672.5" y="840" width="97.5" height="100" as="geometry"/>
                </mxCell>
                <mxCell id="jcYA9xsIbeveeoa89W_H-39" style="edgeStyle=none;html=1;" parent="KVmCY99htQ8bYZ6x_4Vh-1" source="jcYA9xsIbeveeoa89W_H-40" edge="1">
                    <mxGeometry relative="1" as="geometry">
                        <mxPoint x="869.4949999999999" y="655" as="targetPoint"/>
                    </mxGeometry>
                </mxCell>
                <mxCell id="jcYA9xsIbeveeoa89W_H-40" value="" style="rounded=1;whiteSpace=wrap;html=1;" parent="KVmCY99htQ8bYZ6x_4Vh-1" vertex="1">
                    <mxGeometry x="722" y="215" width="295" height="330" as="geometry"/>
                </mxCell>
                <mxCell id="jcYA9xsIbeveeoa89W_H-41" value="Presenation" style="rounded=1;whiteSpace=wrap;html=1;" parent="KVmCY99htQ8bYZ6x_4Vh-1" vertex="1">
                    <mxGeometry x="801.5" y="275" width="120" height="60" as="geometry"/>
                </mxCell>
                <mxCell id="jcYA9xsIbeveeoa89W_H-42" value="Data Access" style="rounded=1;whiteSpace=wrap;html=1;" parent="KVmCY99htQ8bYZ6x_4Vh-1" vertex="1">
                    <mxGeometry x="801.5" y="435" width="120" height="60" as="geometry"/>
                </mxCell>
                <mxCell id="jcYA9xsIbeveeoa89W_H-43" value="Application" style="rounded=1;whiteSpace=wrap;html=1;" parent="KVmCY99htQ8bYZ6x_4Vh-1" vertex="1">
                    <mxGeometry x="801.5" y="355" width="120" height="60" as="geometry"/>
                </mxCell>
                <mxCell id="jcYA9xsIbeveeoa89W_H-44" value="" style="aspect=fixed;perimeter=ellipsePerimeter;html=1;align=center;shadow=0;dashed=0;spacingTop=3;image;image=img/lib/active_directory/database_partition_2.svg;" parent="KVmCY99htQ8bYZ6x_4Vh-1" vertex="1">
                    <mxGeometry x="822.21" y="655" width="94.59" height="70" as="geometry"/>
                </mxCell>
                <mxCell id="jcYA9xsIbeveeoa89W_H-45" value="Basket" style="text;html=1;align=center;verticalAlign=middle;resizable=0;points=[];autosize=1;strokeColor=none;fillColor=none;" parent="KVmCY99htQ8bYZ6x_4Vh-1" vertex="1">
                    <mxGeometry x="844.5" y="190" width="50" height="20" as="geometry"/>
                </mxCell>
            </root>
        </mxGraphModel>
    </diagram>
    <diagram id="TciVL0WqH1fdcRM0JMms" name="Microservice Resilliance">
        <mxGraphModel dx="1011" dy="790" grid="1" gridSize="10" guides="1" tooltips="1" connect="1" arrows="1" fold="1" page="1" pageScale="1" pageWidth="850" pageHeight="1100" math="0" shadow="0">
            <root>
                <mxCell id="-6tBpCmU3Li07kfot-6c-0"/>
                <mxCell id="-6tBpCmU3Li07kfot-6c-1" parent="-6tBpCmU3Li07kfot-6c-0"/>
                <mxCell id="t1SDkZ5pSvTthE-sfxKf-3" style="edgeStyle=none;html=1;entryX=0.75;entryY=0;entryDx=0;entryDy=0;" parent="-6tBpCmU3Li07kfot-6c-1" source="t1SDkZ5pSvTthE-sfxKf-1" target="t1SDkZ5pSvTthE-sfxKf-2" edge="1">
                    <mxGeometry relative="1" as="geometry"/>
                </mxCell>
                <mxCell id="t1SDkZ5pSvTthE-sfxKf-5" style="edgeStyle=none;html=1;entryX=0.5;entryY=0;entryDx=0;entryDy=0;" parent="-6tBpCmU3Li07kfot-6c-1" source="t1SDkZ5pSvTthE-sfxKf-1" target="t1SDkZ5pSvTthE-sfxKf-4" edge="1">
                    <mxGeometry relative="1" as="geometry"/>
                </mxCell>
                <mxCell id="t1SDkZ5pSvTthE-sfxKf-7" style="edgeStyle=none;html=1;entryX=0.375;entryY=0.01;entryDx=0;entryDy=0;entryPerimeter=0;" parent="-6tBpCmU3Li07kfot-6c-1" source="t1SDkZ5pSvTthE-sfxKf-1" target="t1SDkZ5pSvTthE-sfxKf-6" edge="1">
                    <mxGeometry relative="1" as="geometry"/>
                </mxCell>
                <mxCell id="t1SDkZ5pSvTthE-sfxKf-1" value="" style="aspect=fixed;perimeter=ellipsePerimeter;html=1;align=center;shadow=0;dashed=0;spacingTop=3;image;image=img/lib/active_directory/mac_client.svg;" parent="-6tBpCmU3Li07kfot-6c-1" vertex="1">
                    <mxGeometry x="370" y="60" width="55" height="58.51" as="geometry"/>
                </mxCell>
                <mxCell id="t1SDkZ5pSvTthE-sfxKf-2" value="Catalog&lt;br&gt;&lt;br&gt;App1" style="rounded=1;whiteSpace=wrap;html=1;" parent="-6tBpCmU3Li07kfot-6c-1" vertex="1">
                    <mxGeometry x="90" y="200" width="120" height="100" as="geometry"/>
                </mxCell>
                <mxCell id="t1SDkZ5pSvTthE-sfxKf-4" value="Basket&lt;br&gt;App2&lt;br&gt;" style="rounded=1;whiteSpace=wrap;html=1;" parent="-6tBpCmU3Li07kfot-6c-1" vertex="1">
                    <mxGeometry x="337.5" y="230" width="120" height="100" as="geometry"/>
                </mxCell>
                <mxCell id="t1SDkZ5pSvTthE-sfxKf-6" value="Orders&lt;br&gt;&lt;br&gt;App3" style="rounded=1;whiteSpace=wrap;html=1;" parent="-6tBpCmU3Li07kfot-6c-1" vertex="1">
                    <mxGeometry x="580" y="200" width="120" height="100" as="geometry"/>
                </mxCell>
            </root>
        </mxGraphModel>
    </diagram>
    <diagram id="BC5aJZVf8VGI9mVmoi-u" name="Bounded Context">
        <mxGraphModel dx="1011" dy="790" grid="1" gridSize="10" guides="1" tooltips="1" connect="1" arrows="1" fold="1" page="1" pageScale="1" pageWidth="850" pageHeight="1100" math="0" shadow="0">
            <root>
                <mxCell id="WSNn9JfQUjUmZ9uj89kW-0"/>
                <mxCell id="WSNn9JfQUjUmZ9uj89kW-1" parent="WSNn9JfQUjUmZ9uj89kW-0"/>
                <mxCell id="WSNn9JfQUjUmZ9uj89kW-10" style="edgeStyle=none;html=1;entryX=0.003;entryY=0.616;entryDx=0;entryDy=0;entryPerimeter=0;" parent="WSNn9JfQUjUmZ9uj89kW-1" source="WSNn9JfQUjUmZ9uj89kW-2" target="WSNn9JfQUjUmZ9uj89kW-3" edge="1">
                    <mxGeometry relative="1" as="geometry"/>
                </mxCell>
                <mxCell id="WSNn9JfQUjUmZ9uj89kW-2" value="Catalog" style="ellipse;whiteSpace=wrap;html=1;" parent="WSNn9JfQUjUmZ9uj89kW-1" vertex="1">
                    <mxGeometry x="5" y="110" width="310" height="230" as="geometry"/>
                </mxCell>
                <mxCell id="WSNn9JfQUjUmZ9uj89kW-11" style="edgeStyle=none;html=1;entryX=0.09;entryY=0.23;entryDx=0;entryDy=0;entryPerimeter=0;" parent="WSNn9JfQUjUmZ9uj89kW-1" source="WSNn9JfQUjUmZ9uj89kW-3" target="WSNn9JfQUjUmZ9uj89kW-4" edge="1">
                    <mxGeometry relative="1" as="geometry"/>
                </mxCell>
                <mxCell id="WSNn9JfQUjUmZ9uj89kW-12" style="edgeStyle=none;html=1;" parent="WSNn9JfQUjUmZ9uj89kW-1" source="WSNn9JfQUjUmZ9uj89kW-3" target="WSNn9JfQUjUmZ9uj89kW-5" edge="1">
                    <mxGeometry relative="1" as="geometry"/>
                </mxCell>
                <mxCell id="WSNn9JfQUjUmZ9uj89kW-3" value="Basket Service" style="ellipse;whiteSpace=wrap;html=1;" parent="WSNn9JfQUjUmZ9uj89kW-1" vertex="1">
                    <mxGeometry x="305" width="330" height="190" as="geometry"/>
                </mxCell>
                <mxCell id="WSNn9JfQUjUmZ9uj89kW-15" style="edgeStyle=none;html=1;" parent="WSNn9JfQUjUmZ9uj89kW-1" source="WSNn9JfQUjUmZ9uj89kW-4" target="WSNn9JfQUjUmZ9uj89kW-13" edge="1">
                    <mxGeometry relative="1" as="geometry"/>
                </mxCell>
                <mxCell id="WSNn9JfQUjUmZ9uj89kW-4" value="Orders System&lt;br&gt;&lt;br&gt;&lt;span style=&quot;color: rgba(0 , 0 , 0 , 0) ; font-family: monospace ; font-size: 0px&quot;&gt;%3CmxGraphModel%3E%3Croot%3E%3CmxCell%20id%3D%220%22%2F%3E%3CmxCell%20id%3D%221%22%20parent%3D%220%22%2F%3E%3CmxCell%20id%3D%222%22%20value%3D%22Product%20Entity%22%20style%3D%22whiteSpace%3Dwrap%3Bhtml%3D1%3Baspect%3Dfixed%3B%22%20vertex%3D%221%22%20parent%3D%221%22%3E%3CmxGeometry%20x%3D%22120%22%20y%3D%22245%22%20width%3D%2280%22%20height%3D%2280%22%20as%3D%22geometry%22%2F%3E%3C%2FmxCell%3E%3C%2Froot%3E%3C%2FmxGraphModel%3E&lt;/span&gt;" style="ellipse;whiteSpace=wrap;html=1;" parent="WSNn9JfQUjUmZ9uj89kW-1" vertex="1">
                    <mxGeometry x="640" y="220" width="200" height="280" as="geometry"/>
                </mxCell>
                <mxCell id="WSNn9JfQUjUmZ9uj89kW-16" style="edgeStyle=none;html=1;" parent="WSNn9JfQUjUmZ9uj89kW-1" source="WSNn9JfQUjUmZ9uj89kW-5" target="WSNn9JfQUjUmZ9uj89kW-13" edge="1">
                    <mxGeometry relative="1" as="geometry"/>
                </mxCell>
                <mxCell id="WSNn9JfQUjUmZ9uj89kW-5" value="Stock Tracking" style="ellipse;whiteSpace=wrap;html=1;" parent="WSNn9JfQUjUmZ9uj89kW-1" vertex="1">
                    <mxGeometry x="140" y="360" width="290" height="210" as="geometry"/>
                </mxCell>
                <mxCell id="WSNn9JfQUjUmZ9uj89kW-6" value="Product Entity" style="whiteSpace=wrap;html=1;aspect=fixed;" parent="WSNn9JfQUjUmZ9uj89kW-1" vertex="1">
                    <mxGeometry x="250" y="480" width="80" height="80" as="geometry"/>
                </mxCell>
                <mxCell id="WSNn9JfQUjUmZ9uj89kW-7" value="Product Entity" style="whiteSpace=wrap;html=1;aspect=fixed;" parent="WSNn9JfQUjUmZ9uj89kW-1" vertex="1">
                    <mxGeometry x="120" y="240" width="80" height="80" as="geometry"/>
                </mxCell>
                <mxCell id="WSNn9JfQUjUmZ9uj89kW-8" value="Product Entity" style="whiteSpace=wrap;html=1;aspect=fixed;" parent="WSNn9JfQUjUmZ9uj89kW-1" vertex="1">
                    <mxGeometry x="700" y="370" width="80" height="80" as="geometry"/>
                </mxCell>
                <mxCell id="WSNn9JfQUjUmZ9uj89kW-9" value="Product Entity" style="whiteSpace=wrap;html=1;aspect=fixed;" parent="WSNn9JfQUjUmZ9uj89kW-1" vertex="1">
                    <mxGeometry x="430" y="100" width="80" height="80" as="geometry"/>
                </mxCell>
                <mxCell id="IK9NOZLUAnqbdWBkbwMo-0" style="edgeStyle=none;html=1;entryX=0.709;entryY=0.958;entryDx=0;entryDy=0;entryPerimeter=0;" parent="WSNn9JfQUjUmZ9uj89kW-1" source="WSNn9JfQUjUmZ9uj89kW-13" target="WSNn9JfQUjUmZ9uj89kW-5" edge="1">
                    <mxGeometry relative="1" as="geometry"/>
                </mxCell>
                <mxCell id="WSNn9JfQUjUmZ9uj89kW-13" value="Shipment Management" style="ellipse;whiteSpace=wrap;html=1;" parent="WSNn9JfQUjUmZ9uj89kW-1" vertex="1">
                    <mxGeometry x="450" y="570" width="280" height="230" as="geometry"/>
                </mxCell>
                <mxCell id="WSNn9JfQUjUmZ9uj89kW-14" value="Product Entity" style="whiteSpace=wrap;html=1;aspect=fixed;" parent="WSNn9JfQUjUmZ9uj89kW-1" vertex="1">
                    <mxGeometry x="550" y="700" width="80" height="80" as="geometry"/>
                </mxCell>
            </root>
        </mxGraphModel>
    </diagram>
    <diagram id="TkgWI59yyfv7Hw4f_1Uh" name="Messaging">
        <mxGraphModel dx="1011" dy="790" grid="1" gridSize="10" guides="1" tooltips="1" connect="1" arrows="1" fold="1" page="1" pageScale="1" pageWidth="850" pageHeight="1100" math="0" shadow="0">
            <root>
                <mxCell id="wBcMiVBAyAa4kKHYNe64-0"/>
                <mxCell id="wBcMiVBAyAa4kKHYNe64-1" parent="wBcMiVBAyAa4kKHYNe64-0"/>
                <mxCell id="ZTCP2CWtV5J5dEvV7mcF-3" style="edgeStyle=none;html=1;" parent="wBcMiVBAyAa4kKHYNe64-1" source="ZTCP2CWtV5J5dEvV7mcF-0" target="ZTCP2CWtV5J5dEvV7mcF-2" edge="1">
                    <mxGeometry relative="1" as="geometry">
                        <Array as="points">
                            <mxPoint x="430" y="380"/>
                        </Array>
                    </mxGeometry>
                </mxCell>
                <mxCell id="ZTCP2CWtV5J5dEvV7mcF-0" value="Catalog" style="ellipse;whiteSpace=wrap;html=1;" parent="wBcMiVBAyAa4kKHYNe64-1" vertex="1">
                    <mxGeometry x="10" y="540" width="290" height="150" as="geometry"/>
                </mxCell>
                <mxCell id="ZTCP2CWtV5J5dEvV7mcF-4" style="edgeStyle=none;html=1;entryX=0.5;entryY=0;entryDx=0;entryDy=0;" parent="wBcMiVBAyAa4kKHYNe64-1" source="ZTCP2CWtV5J5dEvV7mcF-2" target="ZTCP2CWtV5J5dEvV7mcF-0" edge="1">
                    <mxGeometry relative="1" as="geometry"/>
                </mxCell>
                <mxCell id="ZTCP2CWtV5J5dEvV7mcF-11" style="edgeStyle=none;html=1;entryX=0.997;entryY=0.349;entryDx=0;entryDy=0;entryPerimeter=0;" parent="wBcMiVBAyAa4kKHYNe64-1" source="ZTCP2CWtV5J5dEvV7mcF-2" target="ZTCP2CWtV5J5dEvV7mcF-9" edge="1">
                    <mxGeometry relative="1" as="geometry">
                        <Array as="points">
                            <mxPoint x="610" y="410"/>
                        </Array>
                    </mxGeometry>
                </mxCell>
                <mxCell id="ZTCP2CWtV5J5dEvV7mcF-2" value="Basket" style="ellipse;whiteSpace=wrap;html=1;" parent="wBcMiVBAyAa4kKHYNe64-1" vertex="1">
                    <mxGeometry x="230" y="220" width="290" height="150" as="geometry"/>
                </mxCell>
                <mxCell id="ZTCP2CWtV5J5dEvV7mcF-5" value="SENKRON" style="text;html=1;align=center;verticalAlign=middle;resizable=0;points=[];autosize=1;strokeColor=none;fillColor=none;" parent="wBcMiVBAyAa4kKHYNe64-1" vertex="1">
                    <mxGeometry x="135" y="370" width="70" height="20" as="geometry"/>
                </mxCell>
                <mxCell id="ZTCP2CWtV5J5dEvV7mcF-7" style="edgeStyle=none;html=1;entryX=0;entryY=0;entryDx=0;entryDy=0;" parent="wBcMiVBAyAa4kKHYNe64-1" source="ZTCP2CWtV5J5dEvV7mcF-6" target="ZTCP2CWtV5J5dEvV7mcF-0" edge="1">
                    <mxGeometry relative="1" as="geometry"/>
                </mxCell>
                <mxCell id="ZTCP2CWtV5J5dEvV7mcF-6" value="" style="aspect=fixed;perimeter=ellipsePerimeter;html=1;align=center;shadow=0;dashed=0;spacingTop=3;image;image=img/lib/active_directory/laptop_client.svg;" parent="wBcMiVBAyAa4kKHYNe64-1" vertex="1">
                    <mxGeometry x="20" y="210" width="45" height="50" as="geometry"/>
                </mxCell>
                <mxCell id="ZTCP2CWtV5J5dEvV7mcF-8" value="Orders" style="ellipse;whiteSpace=wrap;html=1;" parent="wBcMiVBAyAa4kKHYNe64-1" vertex="1">
                    <mxGeometry x="520" y="580" width="250" height="150" as="geometry"/>
                </mxCell>
                <mxCell id="ZTCP2CWtV5J5dEvV7mcF-12" style="edgeStyle=none;html=1;" parent="wBcMiVBAyAa4kKHYNe64-1" source="ZTCP2CWtV5J5dEvV7mcF-9" target="ZTCP2CWtV5J5dEvV7mcF-8" edge="1">
                    <mxGeometry relative="1" as="geometry"/>
                </mxCell>
                <mxCell id="ZTCP2CWtV5J5dEvV7mcF-9" value="" style="verticalLabelPosition=bottom;verticalAlign=top;html=1;shape=mxgraph.infographic.cylinder;fillColor=#10739E;strokeColor=none;rotation=-90;" parent="wBcMiVBAyAa4kKHYNe64-1" vertex="1">
                    <mxGeometry x="600" y="315" width="85" height="275" as="geometry"/>
                </mxCell>
            </root>
        </mxGraphModel>
    </diagram>
    <diagram id="plOhcAz52iP_QUxHYIJt" name="Page-6">
        <mxGraphModel dx="1011" dy="790" grid="1" gridSize="10" guides="1" tooltips="1" connect="1" arrows="1" fold="1" page="1" pageScale="1" pageWidth="850" pageHeight="1100" math="0" shadow="0">
            <root>
                <mxCell id="2kK1Osh01IOe9fL-junJ-0"/>
                <mxCell id="2kK1Osh01IOe9fL-junJ-1" parent="2kK1Osh01IOe9fL-junJ-0"/>
                <mxCell id="2kK1Osh01IOe9fL-junJ-6" value="" style="edgeStyle=none;html=1;" parent="2kK1Osh01IOe9fL-junJ-1" source="2kK1Osh01IOe9fL-junJ-2" target="2kK1Osh01IOe9fL-junJ-5" edge="1">
                    <mxGeometry relative="1" as="geometry"/>
                </mxCell>
                <mxCell id="2kK1Osh01IOe9fL-junJ-2" value="" style="aspect=fixed;perimeter=ellipsePerimeter;html=1;align=center;shadow=0;dashed=0;spacingTop=3;image;image=img/lib/active_directory/laptop_client.svg;" parent="2kK1Osh01IOe9fL-junJ-1" vertex="1">
                    <mxGeometry y="330" width="45" height="50" as="geometry"/>
                </mxCell>
                <mxCell id="2kK1Osh01IOe9fL-junJ-10" style="edgeStyle=none;html=1;entryX=0;entryY=0.75;entryDx=0;entryDy=0;" parent="2kK1Osh01IOe9fL-junJ-1" source="2kK1Osh01IOe9fL-junJ-5" target="2kK1Osh01IOe9fL-junJ-9" edge="1">
                    <mxGeometry relative="1" as="geometry"/>
                </mxCell>
                <mxCell id="2kK1Osh01IOe9fL-junJ-11" style="edgeStyle=none;html=1;entryX=0;entryY=0.75;entryDx=0;entryDy=0;" parent="2kK1Osh01IOe9fL-junJ-1" source="2kK1Osh01IOe9fL-junJ-5" target="2kK1Osh01IOe9fL-junJ-8" edge="1">
                    <mxGeometry relative="1" as="geometry"/>
                </mxCell>
                <mxCell id="2kK1Osh01IOe9fL-junJ-12" style="edgeStyle=none;html=1;exitX=1;exitY=0.25;exitDx=0;exitDy=0;entryX=0;entryY=0.75;entryDx=0;entryDy=0;" parent="2kK1Osh01IOe9fL-junJ-1" source="2kK1Osh01IOe9fL-junJ-5" target="2kK1Osh01IOe9fL-junJ-7" edge="1">
                    <mxGeometry relative="1" as="geometry"/>
                </mxCell>
                <mxCell id="2kK1Osh01IOe9fL-junJ-19" style="edgeStyle=none;html=1;" parent="2kK1Osh01IOe9fL-junJ-1" source="2kK1Osh01IOe9fL-junJ-5" target="2kK1Osh01IOe9fL-junJ-18" edge="1">
                    <mxGeometry relative="1" as="geometry"/>
                </mxCell>
                <mxCell id="2kK1Osh01IOe9fL-junJ-5" value="API&lt;br&gt;Gateway" style="rounded=1;whiteSpace=wrap;html=1;verticalAlign=top;shadow=0;dashed=0;spacingTop=3;labelBackgroundColor=default;" parent="2kK1Osh01IOe9fL-junJ-1" vertex="1">
                    <mxGeometry x="107.5" y="30" width="152.5" height="650" as="geometry"/>
                </mxCell>
                <mxCell id="2kK1Osh01IOe9fL-junJ-15" style="edgeStyle=none;html=1;entryX=0.993;entryY=0.022;entryDx=0;entryDy=0;entryPerimeter=0;" parent="2kK1Osh01IOe9fL-junJ-1" source="2kK1Osh01IOe9fL-junJ-7" target="2kK1Osh01IOe9fL-junJ-5" edge="1">
                    <mxGeometry relative="1" as="geometry"/>
                </mxCell>
                <mxCell id="2kK1Osh01IOe9fL-junJ-7" value="Catalog" style="rounded=1;whiteSpace=wrap;html=1;fillColor=#60a917;fontColor=#ffffff;strokeColor=#2D7600;" parent="2kK1Osh01IOe9fL-junJ-1" vertex="1">
                    <mxGeometry x="340" y="220" width="120" height="60" as="geometry"/>
                </mxCell>
                <mxCell id="2kK1Osh01IOe9fL-junJ-14" style="edgeStyle=none;html=1;" parent="2kK1Osh01IOe9fL-junJ-1" source="2kK1Osh01IOe9fL-junJ-8" target="2kK1Osh01IOe9fL-junJ-5" edge="1">
                    <mxGeometry relative="1" as="geometry"/>
                </mxCell>
                <mxCell id="2kK1Osh01IOe9fL-junJ-8" value="Basket" style="rounded=1;whiteSpace=wrap;html=1;fillColor=#d80073;fontColor=#ffffff;strokeColor=#A50040;" parent="2kK1Osh01IOe9fL-junJ-1" vertex="1">
                    <mxGeometry x="350" y="340" width="120" height="60" as="geometry"/>
                </mxCell>
                <mxCell id="2kK1Osh01IOe9fL-junJ-13" style="edgeStyle=none;html=1;" parent="2kK1Osh01IOe9fL-junJ-1" source="2kK1Osh01IOe9fL-junJ-9" target="2kK1Osh01IOe9fL-junJ-5" edge="1">
                    <mxGeometry relative="1" as="geometry"/>
                </mxCell>
                <mxCell id="2kK1Osh01IOe9fL-junJ-9" value="Order" style="rounded=1;whiteSpace=wrap;html=1;fillColor=#6a00ff;fontColor=#ffffff;strokeColor=#3700CC;" parent="2kK1Osh01IOe9fL-junJ-1" vertex="1">
                    <mxGeometry x="330" y="470" width="120" height="60" as="geometry"/>
                </mxCell>
                <mxCell id="2kK1Osh01IOe9fL-junJ-20" style="edgeStyle=none;html=1;entryX=1;entryY=0.211;entryDx=0;entryDy=0;entryPerimeter=0;" parent="2kK1Osh01IOe9fL-junJ-1" source="2kK1Osh01IOe9fL-junJ-18" target="2kK1Osh01IOe9fL-junJ-5" edge="1">
                    <mxGeometry relative="1" as="geometry"/>
                </mxCell>
                <mxCell id="2kK1Osh01IOe9fL-junJ-18" value="Identiy&lt;br&gt;" style="rounded=1;whiteSpace=wrap;html=1;fillColor=#a20025;fontColor=#ffffff;strokeColor=#6F0000;" parent="2kK1Osh01IOe9fL-junJ-1" vertex="1">
                    <mxGeometry x="330" y="50" width="120" height="60" as="geometry"/>
                </mxCell>
            </root>
        </mxGraphModel>
    </diagram>
</mxfile>